<svg xmlns="http://www.w3.org/2000/svg" xmlns:xlink="http://www.w3.org/1999/xlink" version="1.1" id="Layer_1" x="0px" y="0px" width="100%" viewBox="0 0 496 496" enable-background="new 0 0 496 496" xml:space="preserve">
<path fill="#20a836" opacity="1.000000" stroke="none" d=" M215.150848,158.592682   C216.751694,163.104523 214.130447,165.985947 211.924133,168.800964   C208.699539,172.915161 204.546387,176.024857 199.781662,178.203140   C197.134888,179.413193 195.870850,181.311630 195.071152,184.140015   C189.719345,203.068405 187.493912,222.556274 184.193115,241.862701   C182.716171,250.501328 182.746994,256.582642 191.816086,261.913757   C201.097473,267.369659 202.016953,280.387482 196.046799,289.550385   C195.096207,291.009338 194.264801,292.927734 191.081833,291.601929   C196.763535,283.916534 199.859055,275.850464 193.541946,267.172180   C190.749710,263.336304 187.251892,260.526428 182.038879,259.349304   C180.054672,269.394958 178.215454,278.958893 176.256500,288.498260   C175.488800,292.236694 174.212952,295.881378 173.607666,299.639496   C173.028137,303.237549 171.043228,304.013184 167.969894,303.279938   C164.567688,302.468201 165.996933,300.063263 166.410828,298.071747   C169.144623,284.917786 171.578262,271.715240 173.274567,258.023315   C167.162262,256.239502 161.420700,257.974915 156.118423,259.659149   C130.309174,267.857269 110.496773,283.370331 99.503914,308.690735   C95.926399,316.931030 94.998299,325.761932 97.463814,334.575439   C103.429077,355.899536 126.679520,362.696655 143.327682,348.063416   C147.497803,344.397980 150.823990,340.053925 153.504074,335.192535   C154.988556,332.499817 156.883286,330.651398 160.744568,332.817047   C154.215469,345.057678 145.351120,354.136200 131.543655,357.288422   C106.553154,362.993683 90.648956,341.986176 94.483437,320.147278   C100.662369,284.955841 124.806282,266.656219 156.999435,256.816101   C161.237625,255.520660 165.823792,255.229477 170.280823,254.834488   C172.967239,254.596420 174.250061,253.337387 174.554260,250.900467   C177.375305,228.300919 181.622757,205.976593 187.368759,183.937408   C187.397369,183.827652 187.226028,183.665756 186.869751,183.037186   C175.971832,186.675278 165.184082,190.868515 154.669678,195.759094   C148.331696,198.707092 141.953812,201.622284 136.350113,205.902054   C131.110458,209.903809 126.281952,214.170578 127.534058,221.973465   C124.500832,221.759247 124.639694,219.785309 124.644615,218.038696   C124.659775,212.655380 127.935555,209.104141 131.778244,206.032104   C139.389969,199.946915 148.019806,195.602844 156.984314,191.932373   C166.070480,188.212097 175.192947,184.570877 184.387405,181.129837   C187.578537,179.935562 189.619965,178.194702 190.914398,174.948853   C193.210205,169.192047 196.382980,163.899429 201.270035,159.854385   C205.809204,156.097305 210.240509,155.574844 215.150848,158.592682  M212.874557,162.573456   C214.000351,158.090012 211.321869,158.931488 209.123184,160.162888   C203.056747,163.560455 200.389160,169.459122 197.361557,176.340775   C204.323776,172.958954 209.384430,169.133469 212.874557,162.573456  z"/>
<path fill="#20a836" opacity="1.000000" stroke="none" d=" M204.004837,272.412476   C204.647842,270.087463 204.986450,268.090088 205.781952,266.295227   C206.463959,264.756439 207.759460,263.455292 209.737823,264.019135   C211.562683,264.539215 211.608322,266.209229 211.559265,267.707886   C211.446014,271.167206 211.219727,274.622864 211.774078,278.325165   C214.187454,274.268738 216.498367,270.146149 219.056686,266.183319   C220.369003,264.150543 221.769440,261.455444 224.734680,262.129150   C227.544907,262.767639 227.959763,265.495911 228.485458,268.037262   C229.099045,271.003540 229.868042,273.886047 228.898849,277.008057   C230.667175,273.119690 232.353851,269.191406 234.230743,265.356171   C235.623581,262.510010 237.236420,259.715302 239.876556,257.832520   C241.908188,256.383698 244.169586,254.984116 246.794525,256.390167   C249.196747,257.676910 250.181107,259.859894 250.361221,262.563568   C250.734787,268.171112 248.895615,273.395874 247.750824,278.742065   C246.638199,283.938171 245.377090,289.105865 244.419495,294.329712   C244.109055,296.023224 243.738678,298.188202 245.730728,299.298065   C247.579773,300.328308 249.288940,299.288055 250.850815,298.305481   C258.219727,293.669586 263.383240,286.863922 268.219940,279.895233   C270.841187,276.118561 272.542969,274.349670 277.879974,276.417206   C289.064514,280.750031 301.085968,280.200745 312.901031,279.326935   C332.143799,277.903839 351.353912,275.893433 370.693970,276.676636   C372.178650,276.736725 373.647156,277.127411 375.132629,277.249329   C380.394165,277.681274 385.243286,280.182068 391.047211,277.988708   C395.916534,276.148590 401.621277,277.963531 406.819305,278.970795   C414.751404,280.507874 422.024414,279.606750 428.710876,274.909088   C429.504150,274.351776 430.385925,273.754089 431.857056,274.581543   C431.864075,279.136932 428.288940,280.728851 424.880432,282.105621   C417.990601,284.888550 410.860443,284.390076 403.743378,283.004211   C401.463013,282.560181 399.208832,281.954041 396.913696,281.623657   C395.453186,281.413452 393.286713,280.931366 392.555542,281.673462   C387.907349,286.390991 383.578491,283.109406 379.041382,281.680573   C373.742218,280.011749 368.200134,280.273346 362.714050,280.092987   C343.205109,279.451782 323.813965,281.750122 304.355316,282.367371   C294.927826,282.666443 285.765106,281.517303 276.830170,278.638428   C274.202881,277.791901 272.695099,278.215149 271.025330,280.575867   C266.607483,286.821808 262.132843,293.099182 255.982971,297.836975   C252.447037,300.561005 248.684464,304.114990 243.915680,301.477936   C239.026794,298.774506 239.021622,293.469849 239.271133,288.607941   C239.707947,280.095978 242.502411,271.997375 244.029419,263.671722   C244.315857,262.109985 245.299728,260.515259 243.655457,258.671387   C240.536835,259.431396 239.016449,262.015137 237.545700,264.549225   C234.355988,270.045105 232.150879,275.979126 229.999115,281.934143   C229.434570,283.496460 228.801987,285.051727 228.018631,286.512634   C227.217697,288.006287 226.159637,289.425690 224.122818,288.895660   C222.188171,288.392242 221.513306,286.881927 221.713608,285.051331   C222.164703,280.928528 222.680206,276.811188 223.264450,272.705170   C223.567917,270.572479 224.036377,268.468170 223.347580,266.232269   C221.144562,266.222595 220.814865,268.165741 219.992065,269.424561   C215.416733,276.424408 212.108093,284.069977 208.800430,291.713257   C207.864487,293.876038 206.858414,296.472717 204.007675,295.935730   C200.780441,295.327881 201.586487,292.282013 201.784851,290.139648   C202.320633,284.353455 203.172333,278.596527 204.004837,272.412476  z"/>
<path fill="#20a836" opacity="1.000000" stroke="none" d=" M288.298279,321.733093   C288.000000,323.668793 288.833771,326.090332 286.248718,325.894440   C283.968719,325.721649 284.482788,323.442474 284.419891,321.884827   C284.353088,320.230621 284.538239,318.566254 284.615204,316.865234   C284.258942,316.865234 283.824493,316.760254 283.749451,316.880188   C278.349396,325.508606 278.351715,325.510071 272.079071,316.718018   C271.060699,318.950531 271.505432,321.046783 271.349762,323.033447   C271.246521,324.351074 271.376495,325.985809 269.458344,325.890198   C267.988098,325.816895 267.799255,324.412323 267.786102,323.235199   C267.737671,318.905396 267.739655,314.574768 267.763733,310.244659   C267.769318,309.236115 267.932404,308.192627 269.110565,307.835266   C270.433868,307.433899 271.352875,308.120605 272.074921,309.132507   C273.992279,311.819611 275.192444,315.017181 277.935333,317.409607   C282.473083,315.537811 281.801758,308.138092 288.301514,307.424591   C288.301514,312.376526 288.301514,316.825378 288.298279,321.733093  z"/>
<path fill="#20a836" opacity="1.000000" stroke="none" d=" M332.642517,321.778748   C332.645111,317.824860 332.622131,314.341034 332.674286,310.858307   C332.690948,309.745911 332.469238,308.404602 333.891907,307.894348   C335.421448,307.345795 336.362549,308.294678 337.240692,309.377991   C339.607605,312.297913 342.003204,315.194580 344.736542,318.526001   C346.519958,314.667511 344.651123,310.937073 346.446289,307.823822   C347.096466,307.879303 347.775513,307.730621 348.031097,307.993530   C349.398712,309.400360 349.959503,324.018433 348.660004,325.330750   C346.992096,327.015167 345.646088,325.853180 344.515350,324.534637   C342.159088,321.786774 339.871338,318.980103 337.412537,316.025940   C334.830597,319.161102 338.157440,323.653900 334.530731,325.997040   C332.284943,325.349396 332.829224,323.634491 332.642517,321.778748  z"/>
<path fill="#20a836" opacity="1.000000" stroke="none" d=" M359.492554,315.533630   C361.481140,312.668823 361.041809,307.696655 365.138245,307.848267   C368.674377,307.979095 368.924438,312.384491 370.160950,315.101196   C371.699249,318.480865 374.115906,321.584686 374.357178,326.844940   C368.049011,322.429565 362.001160,318.699402 356.166382,328.139343   C355.314178,321.922363 358.219025,319.187744 359.492554,315.533630  M362.946228,316.926422   C363.583557,319.976013 365.423248,318.238098 367.481171,318.303741   C366.573151,316.420105 366.753601,314.641479 364.619324,313.872467   C364.111542,314.713776 363.616974,315.533234 362.946228,316.926422  z"/>
<path fill="#20a836" opacity="1.000000" stroke="none" d=" M300.147980,312.190613   C301.339478,310.233490 301.628540,307.818329 304.196838,307.799896   C306.814484,307.781097 307.179871,310.189026 307.993744,311.880615   C310.121521,316.303162 312.060303,320.816620 313.660614,326.187775   C307.359619,321.378021 301.428589,319.923004 295.401520,326.628510   C295.267242,320.775146 298.371887,316.902893 300.147980,312.190613  M305.865448,316.259766   C305.420654,315.253815 305.289307,314.051147 303.795013,313.287079   C303.347198,315.040955 301.095032,316.540680 303.367737,318.310181   C304.369904,319.090454 306.004333,318.888885 305.865448,316.259766  z"/>
<path fill="#20a836" opacity="1.000000" stroke="none" d=" M186.576691,320.680237   C188.324127,316.858826 189.782227,313.320953 191.544891,309.941986   C192.862488,307.416199 195.282684,306.332489 196.878510,309.235901   C199.708923,314.385529 201.859863,319.908630 204.509125,325.747162   C199.632736,326.772217 198.345306,321.896637 194.261856,321.884125   C190.233765,321.871826 189.267456,326.719818 185.622574,326.112518   C184.671051,323.887299 185.858582,322.522644 186.576691,320.680237  M195.713928,315.167908   C193.531296,312.703979 193.250046,315.194946 192.740372,316.419495   C192.147324,317.844360 193.045670,318.564880 194.402206,318.572784   C196.580414,318.585480 196.778519,317.395691 195.713928,315.167908  z"/>
<path fill="#20a836" opacity="1.000000" stroke="none" d=" M223.310181,315.773804   C224.541901,319.341644 226.934677,322.090485 227.264328,327.105957   C220.836945,322.134583 214.782944,319.035248 208.775681,327.994446   C208.452591,327.128143 208.129517,326.261871 207.806427,325.395569   C210.405594,319.793793 212.733932,314.040894 215.735260,308.663574   C216.961227,306.467072 219.265640,307.358948 220.431839,309.548492   C221.446350,311.453247 222.272110,313.458557 223.310181,315.773804  M219.521286,316.804230   C219.187851,315.743134 219.021500,314.564697 217.625870,314.150757   C216.265335,315.171173 215.456238,316.370941 216.210785,318.388611   C217.432343,318.426758 218.735367,319.094086 219.521286,316.804230  z"/>
<path fill="#20a836" opacity="1.000000" stroke="none" d=" M176.135742,326.410126   C169.421616,327.454468 167.079453,326.494659 165.928391,322.279572   C169.216690,320.914764 173.268539,326.344788 176.233154,321.197998   C174.905350,318.566101 171.998047,319.018799 169.864929,318.036804   C167.446945,316.923615 165.469391,315.498840 165.734207,312.481262   C165.987442,309.595581 167.801712,308.156769 170.508972,307.468903   C173.401047,306.734131 176.119141,306.871613 178.562180,308.656830   C178.903107,308.905914 178.980942,309.969513 178.751617,310.452332   C178.233017,311.544128 177.101013,311.435944 176.129456,311.207062   C173.918594,310.686188 171.632187,309.519897 169.907318,312.290741   C170.731308,314.838928 173.000107,315.140289 175.004501,315.680847   C177.582458,316.376068 179.779373,317.493591 180.164658,320.383850   C180.542877,323.221100 179.022461,325.114746 176.135742,326.410126  z"/>
<path fill="#20a836" opacity="1.000000" stroke="none" d=" M236.226898,324.929321   C231.744232,320.247498 230.940491,315.832275 233.552704,311.750580   C236.067932,307.820465 241.156784,306.128815 245.839310,307.719910   C247.394226,308.248260 249.437561,308.821350 248.767212,310.937897   C248.125641,312.963562 246.314346,311.988037 244.971863,311.455597   C241.958786,310.260498 239.327637,310.858429 237.433044,313.397858   C235.816177,315.565094 235.738235,318.125488 237.334335,320.374176   C239.217789,323.027649 241.919556,323.405762 244.890411,322.448486   C246.404022,321.960815 248.426346,320.649261 249.073273,322.980011   C249.721115,325.314117 247.309906,325.801025 245.608459,326.314819   C242.438629,327.272034 239.381653,326.957031 236.226898,324.929321  z"/>
<path fill="#20a836" opacity="1.000000" stroke="none" d=" M324.115692,316.098022   C324.106140,318.725037 324.154816,320.887604 324.057648,323.043579   C323.998352,324.358917 323.890656,325.898926 322.077362,325.951050   C320.260040,326.003357 319.983124,324.491364 319.958466,323.163757   C319.881348,319.012024 319.895142,314.857208 319.960419,310.704956   C319.981689,309.352844 320.263184,307.891998 322.030945,307.836121   C323.923859,307.776245 323.977814,309.322052 324.048096,310.647705   C324.135986,312.305237 324.096771,313.969452 324.115692,316.098022  z"/>
<path fill="#20a836" opacity="1.000000" stroke="none" d=" M156.821350,307.889160   C159.503143,313.400879 158.210144,319.004639 157.951111,324.516449   C157.874847,326.139435 156.305908,326.558258 155.103119,325.114655   C153.717651,323.451813 154.862518,309.618622 156.821350,307.889160  z"/>
</svg>